# xmcd
#
# Track frame offsets:
#	150
#	15345
#	29647
#	44744
#	58526
#	73327
#	85558
#	99238
#	117291
#	132643
#	151388
#	163748
#	180712
#	191334
#	200789
#	216129
#
# Disc length: 3100 seconds
#
# Revision: 0
# Processed by: cddbd v1.5.2PL0 Copyright (c) Steve Scherf et al.
# Submitted via: dBpowerAMP V4.0
#
DISCID=e50c1a10
DTITLE=Ouro Preto and Boiadeiro - Levando o Som da Viola
DYEAR=2012
DGENRE=Country
TTITLE0=01 -RIO E CANOA
TTITLE1=02 -AOS TRANCOS E BARRANCOS
TTITLE2=03 -AGENDA RABISCADA
TTITLE3=04 -PONTO DE PARTIDA
TTITLE4=05 -OBRA DE UM POETA
TTITLE5=06 -EMPLEITADA PERIGOSA
TTITLE6=07 -NASCEMOS PARA CANTAR
TTITLE7=08 -CAMINHEIRO
TTITLE8=09 -AGUENTA CORAÇÃO
TTITLE9=10 -BOI SOBERANO
TTITLE10=11 -SEGUINDO SEUS PASSOS
TTITLE11=12 -ADEUS
TTITLE12=13 -FOTOGRAFIA
TTITLE13=14 -LINHA DE FRENTE
TTITLE14=15 -QUEM VAI DECIDIR ESTE AMOR SOU EU
TTITLE15=16 -SONHO DE CAMINHEIRO
EXTD=01 -RIO E CANOA\n02 -AOS TRANCOS E BARRANCOS\n03 -AGENDA RABISCADA\n04 -PONTO DE PARTIDA\n05 -OBRA DE UM POETA\n06 -EMPLEITADA PERIGOSA\n07 -NASCEMOS PARA CANTAR\n08 -CAMINHEIRO\n09 -AGUENTA CORAÇÃO\n10 -BOI SOBERANO\n11 -SEGUINDO SEUS PASSOS\n12 -
EXTD=ADEUS\n13 -FOTOGRAFIA\n14 -LINHA DE FRENTE\n15 -QUEM VAI DECIDIR ESTE AMOR SOU EU\n16 -SONHO DE CAMINHEIRO
EXTT0=
EXTT1=
EXTT2=
EXTT3=
EXTT4=
EXTT5=
EXTT6=
EXTT7=
EXTT8=
EXTT9=
EXTT10=
EXTT11=
EXTT12=
EXTT13=
EXTT14=
EXTT15=
PLAYORDER=
